<svg xmlns="http://www.w3.org/2000/svg" width="128" height="128" viewBox="0 0 128 128">
  <defs>
    <linearGradient id="bg" x1="0" y1="0" x2="1" y2="1">
      <stop offset="0%" stop-color="#3f3f46"/>
      <stop offset="50%" stop-color="#292524"/>
      <stop offset="100%" stop-color="#1c1917"/>
    </linearGradient>
  </defs>
  <rect width="128" height="128" rx="28" fill="url(#bg)"/>
  <g transform="translate(26 26) scale(3.17)" fill="none" stroke="white" stroke-width="2" stroke-linecap="round" stroke-linejoin="round">
    <path d="M21 10V8a2 2 0 0 0-1-1.73l-7-4a2 2 0 0 0-2 0l-7 4A2 2 0 0 0 3 8v8a2 2 0 0 0 1 1.73l7 4a2 2 0 0 0 2 0l2-1.14"/>
    <path d="m7.5 4.27 9 5.15"/>
    <polyline points="3.29 7 12 12 20.71 7"/>
    <line x1="12" x2="12" y1="22" y2="12"/>
    <circle cx="18.5" cy="15.5" r="2.5"/>
    <path d="M20.27 17.27 22 19"/>
  </g>
</svg>
